<?xml version="1.0" encoding="UTF-8"?>
<!DOCTYPE svg PUBLIC "-//W3C//DTD SVG 1.1//EN" "http://www.w3.org/Graphics/SVG/1.1/DTD/svg11.dtd">
<svg xmlns="http://www.w3.org/2000/svg" version="1.1" width="210px" height="630px" style="shape-rendering:geometricPrecision; text-rendering:geometricPrecision; image-rendering:optimizeQuality; fill-rule:evenodd; clip-rule:evenodd" xmlns:xlink="http://www.w3.org/1999/xlink">
<g><path style="opacity:0.887" fill="#fefffe" d="M 31.5,13.5 C 41.1553,13.825 45.4887,18.825 44.5,28.5C 46.1439,28.2865 47.6439,28.6198 49,29.5C 49.8311,36.5237 49.6644,43.5237 48.5,50.5C 39.1667,51.8333 29.8333,51.8333 20.5,50.5C 19.3356,43.5237 19.1689,36.5237 20,29.5C 21.3561,28.6198 22.8561,28.2865 24.5,28.5C 22.9185,21.4786 25.2518,16.4786 31.5,13.5 Z M 32.5,18.5 C 38.6247,18.9809 40.958,22.3142 39.5,28.5C 35.8333,28.5 32.1667,28.5 28.5,28.5C 27.7494,24.1804 29.0827,20.8471 32.5,18.5 Z"/></g>
<g><path style="opacity:0.603" fill="#fefffe" d="M 110.5,71.5 C 111.251,70.4265 112.251,70.2599 113.5,71C 116.743,73.9542 117.743,77.4542 116.5,81.5C 115.495,77.4765 113.495,74.1432 110.5,71.5 Z"/></g>
<g><path style="opacity:0.676" fill="#fefffe" d="M 101.5,71.5 C 104.195,71.933 106.362,73.2663 108,75.5C 110.219,79.2707 111.885,83.2707 113,87.5C 114.873,86.9109 116.54,87.5776 118,89.5C 121.168,94.6768 122.001,100.177 120.5,106C 122.203,107.37 123.536,109.036 124.5,111C 121.489,117.351 117.489,123.018 112.5,128C 103.685,132.505 96.5182,130.671 91,122.5C 86.9303,115.669 85.597,108.335 87,100.5C 90.3036,96.5248 93.637,92.5248 97,88.5C 97.5847,83.489 98.2514,78.489 99,73.5C 99.9947,72.9341 100.828,72.2674 101.5,71.5 Z M 100.5,74.5 C 104.17,74.3266 106.67,75.9933 108,79.5C 110.868,86.2157 112.035,93.2157 111.5,100.5C 112.552,100.649 113.552,100.483 114.5,100C 116.689,94.112 118.355,94.4453 119.5,101C 119.049,103.568 118.049,105.902 116.5,108C 117.905,109.269 119.571,109.769 121.5,109.5C 121.657,110.873 121.49,112.207 121,113.5C 118.833,115.83 117.166,118.497 116,121.5C 108.122,130.667 100.455,130.667 93,121.5C 85.7085,109.774 87.3751,99.7736 98,91.5C 100.016,86.0117 100.849,80.345 100.5,74.5 Z"/></g>
<g><path style="opacity:0.779" fill="#fefffe" d="M 28.5,77.5 C 52.8168,76.6382 62.3168,87.9716 57,111.5C 50.3481,123.054 40.5148,127.22 27.5,124C 13.9759,117.784 8.80928,107.284 12,92.5C 15.8225,85.5043 21.3225,80.5043 28.5,77.5 Z M 32.5,79.5 C 48.1077,80.6059 55.941,88.9392 56,104.5C 50.4394,120.03 39.9394,124.863 24.5,119C 12.3359,108.69 11.3359,97.3562 21.5,85C 24.9905,82.588 28.6571,80.7547 32.5,79.5 Z"/></g>
<g><path style="opacity:0.63" fill="#fefffe" d="M 167.5,77.5 C 178.158,75.9077 184.991,80.241 188,90.5C 188.5,98.1594 188.666,105.826 188.5,113.5C 193.766,114.099 196.766,117.099 197.5,122.5C 196.844,124.453 196.511,126.453 196.5,128.5C 180.819,128.833 165.152,128.499 149.5,127.5C 146.844,119.975 149.344,114.975 157,112.5C 157.333,104.833 157.667,97.1667 158,89.5C 159.92,84.4242 163.086,80.4242 167.5,77.5 Z M 169.5,79.5 C 178.366,79.1857 183.533,83.519 185,92.5C 185.188,100.218 185.854,107.885 187,115.5C 191.136,115.069 193.969,117.069 195.5,121.5C 195.023,122.931 194.357,124.264 193.5,125.5C 179.879,126.648 166.212,126.815 152.5,126C 149.293,120.234 150.96,116.4 157.5,114.5C 158.192,115.025 158.692,115.692 159,116.5C 159.616,108.163 160.282,99.8293 161,91.5C 162.165,86.1194 164.998,82.1194 169.5,79.5 Z"/></g>
<g><path style="opacity:0.118" fill="#fefffe" d="M 93.5,80.5 C 94.525,80.8966 94.6917,81.5632 94,82.5C 93.5357,81.9056 93.369,81.2389 93.5,80.5 Z"/></g>
<g><path style="opacity:0.016" fill="#fefffe" d="M 156.5,81.5 C 157.833,82.1667 157.833,82.1667 156.5,81.5 Z"/></g>
<g><path style="opacity:0.255" fill="#fefffe" d="M 189.5,83.5 C 188.833,82.1667 188.833,82.1667 189.5,83.5 Z"/></g>
<g><path style="opacity:0.278" fill="#fefffe" d="M 155.5,83.5 C 156.833,84.1667 156.833,84.1667 155.5,83.5 Z"/></g>
<g><path style="opacity:0.298" fill="#fefffe" d="M 189.5,83.5 C 190.525,83.8966 190.692,84.5632 190,85.5C 189.536,84.9056 189.369,84.2389 189.5,83.5 Z"/></g>
<g><path style="opacity:0.31" fill="#fefffe" d="M 155.5,84.5 C 155.631,85.2389 155.464,85.9056 155,86.5C 154.308,85.5632 154.475,84.8966 155.5,84.5 Z"/></g>
<g><path style="opacity:0.278" fill="#fefffe" d="M 92.5,87.5 C 92.369,86.7611 92.5357,86.0944 93,85.5C 93.6917,86.4368 93.525,87.1034 92.5,87.5 Z"/></g>
<g><path style="opacity:0.435" fill="#fefffe" d="M 92.5,87.5 C 91.8333,88.1667 91.8333,88.1667 92.5,87.5 Z"/></g>
<g><path style="opacity:0.11" fill="#fefffe" d="M 89.5,89.5 C 90.8333,90.1667 90.8333,90.1667 89.5,89.5 Z"/></g>
<g><path style="opacity:0.345" fill="#fefffe" d="M 8.5,90.5 C 9.83333,91.1667 9.83333,91.1667 8.5,90.5 Z"/></g>
<g><path style="opacity:0.703" fill="#fefffe" d="M 33.5,90.5 C 35.1479,93.7945 36.3146,97.4612 37,101.5C 40.2974,103.795 43.2974,106.462 46,109.5C 46.6877,110.332 46.521,110.998 45.5,111.5C 41.4145,108.89 37.2478,106.556 33,104.5C 33.3097,99.8932 33.4764,95.2266 33.5,90.5 Z"/></g>
<g><path style="opacity:0.349" fill="#fefffe" d="M 65.5,92.5 C 64.475,92.1034 64.3083,91.4368 65,90.5C 65.4643,91.0944 65.631,91.7611 65.5,92.5 Z"/></g>
<g><path style="opacity:0.063" fill="#fefffe" d="M 89.5,90.5 C 88.8333,91.1667 88.8333,91.1667 89.5,90.5 Z"/></g>
<g><path style="opacity:0.4" fill="#fefffe" d="M 7.5,95.5 C 7.35055,94.448 7.51722,93.448 8,92.5C 8.74012,93.7494 8.57346,94.7494 7.5,95.5 Z"/></g>
<g><path style="opacity:0.195" fill="#fefffe" d="M 65.5,92.5 C 66.6129,93.9464 66.7796,95.6131 66,97.5C 65.5065,95.8659 65.3398,94.1992 65.5,92.5 Z"/></g>
<g><path style="opacity:0.318" fill="#fefffe" d="M 86.5,92.5 C 87.8333,93.1667 87.8333,93.1667 86.5,92.5 Z"/></g>
<g><path style="opacity:0.249" fill="#fefffe" d="M 86.5,93.5 C 86.631,94.2389 86.4643,94.9056 86,95.5C 85.3083,94.5632 85.475,93.8966 86.5,93.5 Z"/></g>
<g><path style="opacity:0.102" fill="#fefffe" d="M 7.5,95.5 C 6.83333,96.1667 6.83333,96.1667 7.5,95.5 Z"/></g>
<g><path style="opacity:0.014" fill="#fefffe" d="M 66.5,98.5 C 67.5983,99.6009 67.765,100.934 67,102.5C 66.51,101.207 66.3433,99.8734 66.5,98.5 Z"/></g>
<g><path style="opacity:0.386" fill="#fefffe" d="M 164.5,100.5 C 169.65,99.3493 174.984,99.1826 180.5,100C 175.209,101.828 169.875,101.994 164.5,100.5 Z"/></g>
<g><path style="opacity:0.024" fill="#fefffe" d="M 125.5,100.5 C 126.833,101.167 126.833,101.167 125.5,100.5 Z"/></g>
<g><path style="opacity:0.143" fill="#fefffe" d="M 65.5,103.5 C 66.6129,104.946 66.7796,106.613 66,108.5C 65.5065,106.866 65.3398,105.199 65.5,103.5 Z"/></g>
<g><path style="opacity:0.412" fill="#fefffe" d="M 80.5,103.5 C 81.3432,105.487 82.0098,107.654 82.5,110C 80.6853,113.097 79.6853,112.597 79.5,108.5C 79.7284,106.793 80.0617,105.126 80.5,103.5 Z"/></g>
<g><path style="opacity:0.106" fill="#fefffe" d="M 124.5,103.5 C 125.833,104.167 125.833,104.167 124.5,103.5 Z"/></g>
<g><path style="opacity:0.095" fill="#fefffe" d="M 191.5,103.5 C 192.622,105.288 192.789,107.288 192,109.5C 191.505,107.527 191.338,105.527 191.5,103.5 Z"/></g>
<g><path style="opacity:0.078" fill="#fefffe" d="M 127.5,105.5 C 126.833,104.167 126.833,104.167 127.5,105.5 Z"/></g>
<g><path style="opacity:0.475" fill="#fefffe" d="M 127.5,105.5 C 128.167,105.5 128.5,105.833 128.5,106.5C 128.167,106.167 127.833,105.833 127.5,105.5 Z"/></g>
<g><path style="opacity:0.257" fill="#fefffe" d="M 128.5,106.5 C 129.525,106.897 129.692,107.563 129,108.5C 128.536,107.906 128.369,107.239 128.5,106.5 Z"/></g>
<g><path style="opacity:0.345" fill="#fefffe" d="M 165.5,107.5 C 169.981,106.352 174.648,106.185 179.5,107C 174.89,108.827 170.223,108.993 165.5,107.5 Z"/></g>
<g><path style="opacity:0.075" fill="#fefffe" d="M 64.5,109.5 C 65.525,109.897 65.6917,110.563 65,111.5C 64.5357,110.906 64.369,110.239 64.5,109.5 Z"/></g>
<g><path style="opacity:0.063" fill="#fefffe" d="M 128.5,111.5 C 129.833,112.167 129.833,112.167 128.5,111.5 Z"/></g>
<g><path style="opacity:0.459" fill="#fefffe" d="M 63.5,112.5 C 64.8333,113.167 64.8333,113.167 63.5,112.5 Z"/></g>
<g><path style="opacity:0.355" fill="#fefffe" d="M 128.5,112.5 C 128.631,113.239 128.464,113.906 128,114.5C 127.308,113.563 127.475,112.897 128.5,112.5 Z"/></g>
<g><path style="opacity:0.459" fill="#fefffe" d="M 62.5,114.5 C 63.8333,115.167 63.8333,115.167 62.5,114.5 Z"/></g>
<g><path style="opacity:0.451" fill="#fefffe" d="M 61.5,116.5 C 62.8333,117.167 62.8333,117.167 61.5,116.5 Z"/></g>
<g><path style="opacity:0.451" fill="#fefffe" d="M 61.5,117.5 C 60.8333,118.167 60.8333,118.167 61.5,117.5 Z"/></g>
<g><path style="opacity:0.451" fill="#fefffe" d="M 59.5,119.5 C 60.8333,120.167 60.8333,120.167 59.5,119.5 Z"/></g>
<g><path style="opacity:0.699" fill="#fefffe" d="M 124.5,119.5 C 124.665,123.482 122.832,126.816 119,129.5C 118.5,129 118,128.5 117.5,128C 120.393,125.609 122.727,122.775 124.5,119.5 Z"/></g>
<g><path style="opacity:0.835" fill="#fefffe" d="M 59.5,120.5 C 58.8333,121.167 58.8333,121.167 59.5,120.5 Z"/></g>
<g><path style="opacity:0.835" fill="#fefffe" d="M 58.5,121.5 C 57.8333,122.167 57.8333,122.167 58.5,121.5 Z"/></g>
<g><path style="opacity:0.827" fill="#fefffe" d="M 57.5,122.5 C 56.8333,123.167 56.8333,123.167 57.5,122.5 Z"/></g>
<g><path style="opacity:0.831" fill="#fefffe" d="M 56.5,123.5 C 55.8333,124.167 55.8333,124.167 56.5,123.5 Z"/></g>
<g><path style="opacity:0.451" fill="#fefffe" d="M 55.5,124.5 C 54.8333,125.167 54.8333,125.167 55.5,124.5 Z"/></g>
<g><path style="opacity:0.447" fill="#fefffe" d="M 52.5,125.5 C 53.8333,126.167 53.8333,126.167 52.5,125.5 Z"/></g>
<g><path style="opacity:0.459" fill="#fefffe" d="M 52.5,126.5 C 51.8333,127.167 51.8333,127.167 52.5,126.5 Z"/></g>
<g><path style="opacity:0.455" fill="#fefffe" d="M 49.5,127.5 C 50.8333,128.167 50.8333,128.167 49.5,127.5 Z"/></g>
<g><path style="opacity:0.459" fill="#fefffe" d="M 47.5,128.5 C 48.8333,129.167 48.8333,129.167 47.5,128.5 Z"/></g>
<g><path style="opacity:0.078" fill="#fefffe" d="M 44.5,130.5 C 44.8966,129.475 45.5632,129.308 46.5,130C 45.9056,130.464 45.2389,130.631 44.5,130.5 Z"/></g>
<g><path style="opacity:0.168" fill="#fefffe" d="M 39.5,131.5 C 40.6009,130.402 41.9343,130.235 43.5,131C 42.2068,131.49 40.8734,131.657 39.5,131.5 Z"/></g>
</svg>
